{"title":"Race To Redemption Win 2016 Movies BRRip XviD New +Sample ☻rDX☻","uid":15506793,"size":739467862,"categoryP":"video","categoryS":"movies","magnet":"?xt=urn:btih:2d1ae5d4d44d5063115ced2552d9fbe2d6630252&amp;dn=Race+To+Redemption+Win+2016+Movies+BRRip+XviD+New+%2BSample+%E2%98%BBrDX%E2%98%BB&amp;tr=udp%3A%2F%2Ftracker.leechers-paradise.org%3A6969&amp;tr=udp%3A%2F%2Fzer0day.ch%3A1337&amp;tr=udp%3A%2F%2Fopen.demonii.com%3A1337&amp;tr=udp%3A%2F%2Ftracker.coppersurfer.tk%3A6969&amp;tr=udp%3A%2F%2Fexodus.desync.com%3A6969","seeders":1,"leechers":0,"uploader":"basicssom","files":2,"time":1470598321,"description":"----------------------------------------------------------------\r\nRace To Redemption Win 2016 English Movies BRRip XviD AAC New Source with Sample ☻rDX☻\r\n\r\nSCREEN SHOTS &amp; POSTER:\r\n  \nhttp://postimage.co.nr/2016/8/free/index.htm  \nhttp://postimage.co.nr/2016/8/free/1.html  \nhttp://postimage.co.nr/2016/8/free/2.html  \nhttp://postimage.co.nr/2016/8/free/3.html  \nhttp://postimage.co.nr/2016/8/free/4.html  \nhttp://postimage.co.nr/2016/8/free/5.html  \nhttp://postimage.co.nr/2016/8/free/6.html  \nhttp://postimage.co.nr/2016/8/free/7.html  \nhttp://postimage.co.nr/2016/8/free/8.html  \nhttp://postimage.co.nr/2016/8/free/9.html  \nhttp://postimage.co.nr/2016/8/free/10.html\r\n\r\nFormat                                   : Matroska\r\nFormat version                           : Version 4 / Version 2\r\nFile size                                : 699 MiB\r\nDuration                                 : 1 h 22 min\r\nOverall bit rate mode                    : Constant\r\nOverall bit rate                         : 1 190 kb/s\r\nMovie name                               : Race To Redemption Win 2016 English Movies BRRip XviD AAC New Source ☻rDX☻\r\n\r\nVideo\r\nID                                       : 2\r\nFormat                                   : AVC\r\nFormat/Info                              : Advanced Video Codec\r\nFormat profile                           :   \r\nFormat settings, CABAC                   : Yes\r\nFormat settings, ReFrames                : 2 frames\r\nFormat settings, GOP                     : M=1, N=12\r\nCodec ID                                 : V_MPEG4/ISO/AVC\r\nDuration                                 : 1 h 22 min\r\nBit rate mode                            : Constant\r\nBit rate                                 : 743 kb/s\r\nWidth                                    : 720 pixels\r\nHeight                                   : 304 pixels\r\nDisplay aspect ratio                     : 2.35:1\r\nFrame rate mode                          : Constant\r\nFrame rate                               : 24.000 FPS\r\nColor space                              : YUV\r\nChroma subsampling                       : 4:2:0\r\nBit depth                                : 8 bits\r\nScan type                                : Progressive\r\nBits/(Pixel*Frame)                       : 0.141\r\nStream size                              : 422 MiB (60%)\r\nTitle                                    : ☻rDX☻\r\nDefault                                  : Yes\r\nForced                                   : No\r\n\r\nAudio\r\nID                                       : 1\r\nFormat                                   : AC-3\r\nFormat/Info                              : Audio Coding 3\r\nMode extension                           : CM (complete main)\r\nFormat settings, Endianness              : Big\r\nCodec ID                                 : A_AC3\r\nDuration                                 : 1 h 22 min\r\nBit rate mode                            : Constant\r\nBit rate                                 : 448 kb/s\r\nChannel(s)                               : 6 channels\r\nChannel positions                        : Front: L C R, Side: L R, LFE\r\nSampling rate                            : 48.0 kHz\r\nFrame rate                               : 31.250 FPS (1536 spf)\r\nCompression mode                         : Lossy\r\nStream size                              : 263 MiB (38%)\r\nTitle                                    : ☻rDX☻\r\nDefault                                  : Yes\r\nForced                                   : No\r\n\r\nIMDB \nhttp://www.imdb.com/title/tt5024894/","torrent":{"xt":"urn:btih:2d1ae5d4d44d5063115ced2552d9fbe2d6630252","amp;dn":"Race+To+Redemption+Win+2016+Movies+BRRip+XviD+New+%2BSample+%E2%98%BBrDX%E2%98%BB","amp;tr":["udp%3A%2F%2Ftracker.leechers-paradise.org%3A6969","udp%3A%2F%2Fzer0day.ch%3A1337","udp%3A%2F%2Fopen.demonii.com%3A1337","udp%3A%2F%2Ftracker.coppersurfer.tk%3A6969","udp%3A%2F%2Fexodus.desync.com%3A6969"],"infoHash":"2d1ae5d4d44d5063115ced2552d9fbe2d6630252","infoHashBuffer":{"type":"Buffer","data":[45,26,229,212,212,77,80,99,17,92,237,37,82,217,251,226,214,99,2,82]},"announce":[],"urlList":[]}}